<?xml version="1.0" encoding="UTF-8"?> <svg xmlns="http://www.w3.org/2000/svg" width="20" height="20" viewBox="0 0 20 20" fill="none"> <path d="M9.99 5.95696e-05C4.53 5.95696e-05 0.0800002 4.45006 0.0800002 9.91006C0.0800002 11.6601 0.54 13.3601 1.4 14.8601L0 20.0001L5.25 18.6201C6.7 19.4101 8.33 19.8301 9.99 19.8301C15.45 19.8301 19.9 15.3801 19.9 9.92006C19.9 7.27006 18.87 4.78006 17 2.91006C16.0832 1.98399 14.9912 1.24973 13.7876 0.750111C12.5841 0.250494 11.2931 -0.00448012 9.99 5.95696e-05ZM10 1.67006C12.2 1.67006 14.26 2.53006 15.82 4.09006C16.5856 4.85541 17.1926 5.76438 17.6062 6.76482C18.0197 7.76526 18.2317 8.83751 18.23 9.92006C18.23 14.4601 14.53 18.1501 9.99 18.1501C8.51 18.1501 7.06 17.7601 5.8 17.0001L5.5 16.8301L2.38 17.6501L3.21 14.6101L3.01 14.2901C2.18394 12.9787 1.74701 11.4599 1.75 9.91006C1.76 5.37006 5.45 1.67006 10 1.67006ZM6.48 5.33006C6.32 5.33006 6.05 5.39006 5.82 5.64006C5.6 5.89006 4.95 6.50006 4.95 7.71006C4.95 8.93006 5.84 10.1001 5.95 10.2701C6.09 10.4401 7.71 12.9401 10.2 14.0001C10.79 14.2701 11.25 14.4201 11.61 14.5301C12.2 14.7201 12.74 14.6901 13.17 14.6301C13.65 14.5601 14.63 14.0301 14.84 13.4501C15.05 12.8701 15.05 12.3801 14.99 12.2701C14.92 12.1701 14.76 12.1101 14.51 12.0001C14.26 11.8601 13.04 11.2601 12.82 11.1801C12.59 11.1001 12.45 11.0601 12.26 11.3001C12.1 11.5501 11.62 12.1101 11.48 12.2701C11.33 12.4401 11.19 12.4601 10.95 12.3401C10.69 12.2101 9.89 11.9501 8.95 11.1101C8.21 10.4501 7.72 9.64006 7.57 9.39006C7.45 9.15006 7.56 9.00006 7.68 8.89006C7.79 8.78006 7.95 8.60006 8.05 8.45006C8.18 8.31006 8.22 8.20006 8.3 8.04006C8.38 7.87006 8.34 7.73006 8.28 7.61006C8.22 7.50006 7.72 6.26006 7.51 5.77006C7.31 5.29006 7.11 5.35006 6.95 5.34006C6.81 5.34006 6.65 5.33006 6.48 5.33006Z" fill="#B1B1B1"></path> </svg> 